# xmcd CD database file
#
# Track frame offsets:
#	150
#	13217
#	27262
#	41122
#	54395
#	68420
#	81537
#	95810
#	111307
#	123250
#	137345
#	150695
#	164052
#	178715
#	192370
#	207300
#	220410
#	234237
#	247970
#	264140
#	273667
#	284342
#	295370
#
# Disc length: 4147 seconds
#
# Revision: 0
# Processed by: cddbd v1.5.2PL0 Copyright (c) Steve Scherf et al.
# Submitted via: CDex 1.51
#
DISCID=5b103117
DTITLE=Joe Sullivan - The Piano Artistry of Joe Sullivan
DYEAR=1998
DGENRE=Jazz
TTITLE0=Squeeze Me
TTITLE1=I Got It Bad
TTITLE2=He's The Talk Of The Town
TTITLE3=My Silent Love, #1
TTITLE4=My Silent Love, #2
TTITLE5=Memories Of You
TTITLE6=Deep Purple
TTITLE7=The Moon Is Low
TTITLE8=Reflections
TTITLE9=24 Hours At Booth's
TTITLE10=The Bass Romps Away
TTITLE11=Night And Day
TTITLE12=High Dudgeon
TTITLE13=Brushin' Off The Boogie
TTITLE14=Heavy Laden
TTITLE15=What's Your Name
TTITLE16=An Armful Of You
TTITLE17=Solid Eclipse
TTITLE18=Breezin'
TTITLE19=Can't We Get Together
TTITLE20=Never Heard Of Such Stuff
TTITLE21=There'll Come A Time When You'll Need Me
TTITLE22=If You Can't Be Good, Be Careful
EXTD=YEAR: 1998
EXTT0=
EXTT1=
EXTT2=
EXTT3=
EXTT4=
EXTT5=
EXTT6=
EXTT7=
EXTT8=
EXTT9=
EXTT10=
EXTT11=
EXTT12=
EXTT13=
EXTT14=
EXTT15=
EXTT16=
EXTT17=
EXTT18=
EXTT19=
EXTT20=
EXTT21=
EXTT22=
PLAYORDER=
